HIERARCHY
ROOT hip
{
  OFFSET 0 0 0
  CHANNELS 6 Xposition Yposition Zposition Zrotation Yrotation Xrotation
  JOINT abdomen
  {
    OFFSET 0 20.6881 -0.73152
    CHANNELS 3 Zrotation Xrotation Yrotation
    JOINT chest
    {
      OFFSET 0 11.7043 -0.48768
      CHANNELS 3 Zrotation Xrotation Yrotation
      JOINT neck
      {
        OFFSET 0 22.1894 -2.19456
        CHANNELS 3 Zrotation Xrotation Yrotation
        JOINT head
        {
          OFFSET -0.24384 7.07133 1.2192
          CHANNELS 3 Zrotation Xrotation Yrotation
          JOINT leftEye
          {
            OFFSET 4.14528 8.04674 8.04672
            CHANNELS 3 Zrotation Xrotation Yrotation
            End Site
            {
              OFFSET 1 0 0
            }
          }
          JOINT rightEye
          {
            OFFSET -3.6576 8.04674 8.04672
            CHANNELS 3 Zrotation Xrotation Yrotation
            End Site
            {
              OFFSET 1 0 0
            }
          }
        }
      }
      JOINT rCollar
      {
        OFFSET -2.68224 19.2634 -4.8768
        CHANNELS 3 Zrotation Xrotation Yrotation
        JOINT rShldr
        {
          OFFSET -8.77824 -1.95073 1.46304
          CHANNELS 3 Zrotation Xrotation Yrotation
          JOINT rForeArm
          {
            OFFSET -28.1742 -1.7115 0.48768
            CHANNELS 3 Zrotation Xrotation Yrotation
            JOINT rHand
            {
              OFFSET -22.5879 0.773209 7.07136
              CHANNELS 3 Zrotation Xrotation Yrotation
              JOINT rThumb1
              {
                OFFSET -1.2192 -0.487915 3.41376
                CHANNELS 3 Zrotation Xrotation Yrotation
                JOINT rThumb2
                {
                  OFFSET -3.37035 -0.52449 3.41376
                  CHANNELS 3 Zrotation Xrotation Yrotation
                  End Site
                  {
                    OFFSET -1.78271 -1.18214 1.43049
                  }
                }
              }
              JOINT rIndex1
              {
                OFFSET -7.75947 0.938293 5.60832
                CHANNELS 3 Zrotation Xrotation Yrotation
                JOINT rIndex2
                {
                  OFFSET -2.54057 -0.884171 1.56538
                  CHANNELS 3 Zrotation Xrotation Yrotation
                  End Site
                  {
                    OFFSET -1.62519 -0.234802 1.16502
                  }
                }
              }
              JOINT rMid1
              {
                OFFSET -8.24714 1.18213 3.41376
                CHANNELS 3 Zrotation Xrotation Yrotation
                JOINT rMid2
                {
                  OFFSET -3.10165 -0.590103 1.0647
                  CHANNELS 3 Zrotation Xrotation Yrotation
                  End Site
                  {
                    OFFSET -2.48547 -0.328903 0.83742
                  }
                }
              }
              JOINT rRing1
              {
                OFFSET -8.82822 0.546677 1.51678
                CHANNELS 3 Zrotation Xrotation Yrotation
                JOINT rRing2
                {
                  OFFSET -2.60934 -0.819778 -0.0198488
                  CHANNELS 3 Zrotation Xrotation Yrotation
                  End Site
                  {
                    OFFSET -2.33842 -0.294052 0.168128
                  }
                }
              }
              JOINT rPinky1
              {
                OFFSET -8.27202 -0.0477905 -0.4584
                CHANNELS 3 Zrotation Xrotation Yrotation
                JOINT rPinky2
                {
                  OFFSET -1.82734 -0.647385 -0.700984
                  CHANNELS 3 Zrotation Xrotation Yrotation
                  End Site
                  {
                    OFFSET -1.69225 -0.51767 -0.607171
                  }
                }
              }
            }
          }
        }
      }
      JOINT lCollar
      {
        OFFSET 2.68224 19.2634 -4.8768
        CHANNELS 3 Zrotation Xrotation Yrotation
        JOINT lShldr
        {
          OFFSET 8.77824 -1.95073 1.46304
          CHANNELS 3 Zrotation Xrotation Yrotation
          JOINT lForeArm
          {
            OFFSET 28.1742 -1.7115 0.48768
            CHANNELS 3 Zrotation Xrotation Yrotation
            JOINT lHand
            {
              OFFSET 22.5879 0.773209 7.07136
              CHANNELS 3 Zrotation Xrotation Yrotation
              JOINT lThumb1
              {
                OFFSET 1.2192 -0.487915 3.41376
                CHANNELS 3 Zrotation Xrotation Yrotation
                JOINT lThumb2
                {
                  OFFSET 3.37035 -0.52449 3.41376
                  CHANNELS 3 Zrotation Xrotation Yrotation
                  End Site
                  {
                    OFFSET 1.78271 -1.18214 1.43049
                  }
                }
              }
              JOINT lIndex1
              {
                OFFSET 7.75947 0.938293 5.60832
                CHANNELS 3 Zrotation Xrotation Yrotation
                JOINT lIndex2
                {
                  OFFSET 2.54057 -0.884171 1.56538
                  CHANNELS 3 Zrotation Xrotation Yrotation
                  End Site
                  {
                    OFFSET 1.62519 -0.234802 1.16502
                  }
                }
              }
              JOINT lMid1
              {
                OFFSET 8.24714 1.18213 3.41376
                CHANNELS 3 Zrotation Xrotation Yrotation
                JOINT lMid2
                {
                  OFFSET 3.10165 -0.590103 1.0647
                  CHANNELS 3 Zrotation Xrotation Yrotation
                  End Site
                  {
                    OFFSET 2.48547 -0.328903 0.83742
                  }
                }
              }
              JOINT lRing1
              {
                OFFSET 8.82822 0.546677 1.51678
                CHANNELS 3 Zrotation Xrotation Yrotation
                JOINT lRing2
                {
                  OFFSET 2.60934 -0.819778 -0.0198488
                  CHANNELS 3 Zrotation Xrotation Yrotation
                  End Site
                  {
                    OFFSET 2.33842 -0.294052 0.168128
                  }
                }
              }
              JOINT lPinky1
              {
                OFFSET 8.27202 -0.0477905 -0.4584
                CHANNELS 3 Zrotation Xrotation Yrotation
                JOINT lPinky2
                {
                  OFFSET 1.82734 -0.647385 -0.700984
                  CHANNELS 3 Zrotation Xrotation Yrotation
                  End Site
                  {
                    OFFSET 1.69225 -0.51767 -0.607171
                  }
                }
              }
            }
          }
        }
      }
    }
  }
  JOINT rButtock
  {
    OFFSET -8.77824 4.35084 1.2192
    CHANNELS 3 Zrotation Xrotation Yrotation
    JOINT rThigh
    {
      OFFSET 0 -1.70687 -2.19456
      CHANNELS 3 Zrotation Xrotation Yrotation
      JOINT rShin
      {
        OFFSET 0 -36.8199 0.73152
        CHANNELS 3 Zrotation Xrotation Yrotation
        JOINT rFoot
        {
          OFFSET 0.73152 -45.1104 -5.12064
          CHANNELS 3 Zrotation Xrotation Yrotation
          End Site
          {
            OFFSET -1.1221 -3.69964 12.103
          }
        }
      }
    }
  }
  JOINT lButtock
  {
    OFFSET 8.77824 4.35084 1.2192
    CHANNELS 3 Zrotation Xrotation Yrotation
    JOINT lThigh
    {
      OFFSET 0 -1.70687 -2.19456
      CHANNELS 3 Zrotation Xrotation Yrotation
      JOINT lShin
      {
        OFFSET 0 -36.8199 0.73152
        CHANNELS 3 Zrotation Xrotation Yrotation
        JOINT lFoot
        {
          OFFSET -0.73152 -45.1104 -5.12064
          CHANNELS 3 Zrotation Xrotation Yrotation
          End Site
          {
            OFFSET 1.1221 -3.69964 12.103
          }
        }
      }
    }
  }
}
MOTION
Frames:	5
Frame Time:	0.00833333
58.3935 85.507 98.3174 0.0 0.0 0.0 2.23577 -0.000463279 0.0604463 0.615839 0.00896614 0.106598 -2.22081e-14 0.0 -5.46658e-16 -6.51641e-14 3.18055e-15 -1.68967e-15 -0.0 0.0 0.0 -0.0 0.0 0.0 -1.09347e-14 3.2419e-17 -9.93923e-17 -2.26717e-13 3.54085e-16 -5.1684e-15 -3.92033e-12 1.19092e-12 -9.22361e-14 -4.47893e-11 -1.06636e-12 -1.14182e-12 -1.05656e-10 2.73152e-13 -2.64304e-12 -1.82466e-10 4.73903e-13 -4.56648e-12 -1.0565e-10 2.7472e-13 -2.65576e-12 7.73091 5.47488 0.417314 -1.05656e-10 2.73031e-13 -2.64622e-12 2.90554 0.965183 0.102902 -1.05648e-10 2.7323e-13 -2.6494e-12 10.2786 0.731801 0.0259123 -1.05667e-10 2.73528e-13 -2.63986e-12 2.22167 -0.733487 -0.20892 -1.10318e-14 3.57191e-17 -3.97569e-16 -2.29823e-13 6.7711e-16 -6.95746e-15 -3.91139e-12 -1.15275e-12 -6.36111e-14 -4.47989e-11 1.29869e-12 -1.15136e-12 -1.05655e-10 3.14911e-13 -2.66212e-12 -1.82448e-10 5.43875e-13 -4.57841e-12 -1.05658e-10 3.13682e-13 -2.65258e-12 -7.73091 5.47488 -0.417314 -1.05655e-10 3.14875e-13 -2.65258e-12 -2.90554 0.965183 -0.102902 -1.0566e-10 3.15272e-13 -2.65338e-12 -10.2786 0.731801 -0.0259123 -1.0565e-10 3.1567e-13 -2.65894e-12 -2.22167 -0.733487 0.20892 -2.03217e-16 0.0 -3.88251e-19 2.21385 -7.80145 -0.224392 0.00520601 8.55925 0.135739 -0.551104 -0.766402 0.0464829 2.03217e-16 0.0 3.88251e-19 1.18985 -1.92859 -0.00263987 0.00904871 -2.07859 0.074607 0.50765 3.99849 -0.13967
60.966 85.5161 94.1922 9.6822 0.6544 4.93 -0.217802 -3.39643 -1.7304 1.66139 1.18197 -0.347157 -3.06429 6.60271 -4.50529 5.77882 -8.20354 -8.14159 -0.0 0.0 0.0 -0.0 0.0 0.0 -1.40881e-13 -6.06103e-14 3.42282e-15 21.8388 9.35177 -0.439113 -3.44978 -1.44037 5.51836 0.0106925 2.29418 0.321493 4.53999e-10 -1.00728e-09 9.81148e-10 7.90941e-10 -1.7436e-09 1.69099e-09 4.54004e-10 -1.00728e-09 9.81136e-10 7.73091 5.47488 0.417314 4.53998e-10 -1.00728e-09 9.81144e-10 2.90554 0.965183 0.102902 4.54006e-10 -1.00728e-09 9.81142e-10 10.2786 0.731801 0.0259123 4.53988e-10 -1.00728e-09 9.81152e-10 2.22167 -0.733487 -0.20892 -1.4099e-13 -6.06116e-14 3.17124e-15 -22.6005 5.70665 0.12142 3.24644 -1.32328 -5.22354 -0.00191194 -0.97085 0.136373 1.01619e-09 7.09147e-10 -1.32984e-10 1.75499e-09 1.22483e-09 -2.28804e-10 1.01618e-09 7.09147e-10 -1.32979e-10 -7.73091 5.47488 -0.417314 1.01619e-09 7.09147e-10 -1.3298e-10 -2.90554 0.965183 -0.102902 1.01618e-09 7.09147e-10 -1.32979e-10 -10.2786 0.731801 -0.0259123 1.01619e-09 7.09146e-10 -1.32986e-10 -2.22167 -0.733487 0.20892 -2.03217e-16 0.0 -3.88251e-19 -1.69257 -8.0096 2.07614 0.00162763 9.18988 0.108545 -0.172109 -5.593 -4.0221 2.03217e-16 0.0 3.88251e-19 1.0655 -2.14477 0.720087 0.00570061 -2.3589 0.0761292 0.110999 1.96537 -1.15549
60.9237 85.5247 94.2066 9.3356 0.3768 5.0023 -3.05028 -6.97316 -3.64105 2.78666 2.42396 -0.826501 -5.15597 13.4309 -9.47103 9.28829 -16.29 -17.3022 -0.0 0.0 0.0 -0.0 0.0 0.0 -2.81746e-13 -1.27552e-13 6.88292e-15 45.0894 19.2354 -0.943585 -6.79408 -2.91697 11.3593 -0.00607796 4.71617 0.662646 1.0526e-09 -2.0943e-09 2.0455e-09 1.83217e-09 -3.62527e-09 3.52543e-09 1.0526e-09 -2.0943e-09 2.04549e-09 7.73091 5.47488 0.417314 1.0526e-09 -2.0943e-09 2.0455e-09 2.90554 0.965183 0.102902 1.0526e-09 -2.0943e-09 2.0455e-09 10.2786 0.731801 0.0259123 1.05259e-09 -2.0943e-09 2.04551e-09 2.22167 -0.733487 -0.20892 -2.81871e-13 -1.27559e-13 6.68414e-15 -46.5187 11.7401 0.25276 6.42008 -2.68721 -10.7591 0.00110257 -2.002 0.281351 2.22509e-09 1.47047e-09 -2.83194e-10 3.84277e-09 2.53977e-09 -4.8731e-10 2.22508e-09 1.47047e-09 -2.83193e-10 -7.73091 5.47488 -0.417314 2.22509e-09 1.47047e-09 -2.83196e-10 -2.90554 0.965183 -0.102902 2.22508e-09 1.47047e-09 -2.83192e-10 -10.2786 0.731801 -0.0259123 2.22509e-09 1.47047e-09 -2.83202e-10 -2.22167 -0.733487 0.20892 -2.03217e-16 0.0 -3.88251e-19 -5.81285 -8.20401 4.50554 -0.00136075 9.84756 0.0799397 -0.522995 -10.5934 -8.41403 2.03217e-16 0.0 3.88251e-19 0.931609 -2.36776 1.48082 0.00212754 -2.65974 0.0780093 -0.38698 -0.191089 -2.22597
60.8939 85.5281 94.203 9.1459 0.2391 5.0654 -5.76934 -10.1489 -5.38751 3.80832 3.52718 -1.25683 -5.95373 19.3041 -14.2422 10.1026 -22.551 -26.321 -0.0 0.0 0.0 -0.0 0.0 0.0 -4.00773e-13 -1.81896e-13 1.04673e-14 65.995 28.0482 -1.47284 -9.528 -4.16106 16.5948 -0.0456334 6.88168 0.970701 1.57331e-09 -3.02238e-09 2.94873e-09 2.73775e-09 -5.23175e-09 5.08209e-09 1.57331e-09 -3.02238e-09 2.94872e-09 7.73091 5.47488 0.417314 1.57331e-09 -3.02238e-09 2.94873e-09 2.90554 0.965183 0.102902 1.57331e-09 -3.02238e-09 2.94872e-09 10.2786 0.731801 0.0259123 1.5733e-09 -3.02238e-09 2.94873e-09 2.22167 -0.733487 -0.20892 -4.00908e-13 -1.81906e-13 1.03088e-14 -67.877 17.1196 0.379258 9.02414 -3.83806 -15.7025 0.00814401 -2.91248 0.409591 3.25987e-09 2.12681e-09 -3.93628e-10 5.62986e-09 3.67339e-09 -6.77254e-10 3.25986e-09 2.12681e-09 -3.9363e-10 -7.73091 5.47488 -0.417314 3.25987e-09 2.12681e-09 -3.93635e-10 -2.90554 0.965183 -0.102902 3.25986e-09 2.12681e-09 -3.9363e-10 -10.2786 0.731801 -0.0259123 3.25987e-09 2.12681e-09 -3.93641e-10 -2.22167 -0.733487 0.20892 -2.03217e-16 0.0 -3.88251e-19 -9.45555 -8.38479 6.68402 -0.00370408 10.4511 0.0538964 -1.51462 -14.9396 -12.5318 2.03217e-16 0.0 3.88251e-19 0.833157 -2.57579 2.16621 -0.000950817 -2.91954 0.079181 -0.898467 -2.09644 -3.18792
60.8939 85.5076 94.1151 9.0024 0.356 5.2221 -7.75008 -12.3596 -6.65213 4.53155 4.28427 -1.56251 -5.83841 23.2681 -17.841 9.37341 -26.2126 -33.175 -0.0 0.0 0.0 -0.0 0.0 0.0 -4.65204e-13 -2.04742e-13 1.43622e-14 80.6867 34.1909 -1.91871 -11.3085 -4.97537 20.2793 -0.0874737 8.40687 1.19015 1.89929e-09 -3.55311e-09 3.44913e-09 3.30424e-09 -6.15025e-09 5.94431e-09 1.8993e-09 -3.55311e-09 3.44912e-09 7.73091 5.47488 0.417314 1.89929e-09 -3.55311e-09 3.44913e-09 2.90554 0.965183 0.102902 1.8993e-09 -3.55311e-09 3.44913e-09 10.2786 0.731801 0.0259123 1.89928e-09 -3.55311e-09 3.44914e-09 2.22167 -0.733487 -0.20892 -4.65338e-13 -2.04755e-13 1.42131e-14 -82.7825 20.8644 0.479713 10.7076 -4.58255 -19.1352 0.0152321 -3.52135 0.495524 3.85935e-09 2.52068e-09 -4.04624e-10 6.66524e-09 4.35368e-09 -6.95795e-10 3.85934e-09 2.52069e-09 -4.04627e-10 -7.73091 5.47488 -0.417314 3.85935e-09 2.52068e-09 -4.04633e-10 -2.90554 0.965183 -0.102902 3.85934e-09 2.52068e-09 -4.04628e-10 -10.2786 0.731801 -0.0259123 3.85935e-09 2.52068e-09 -4.0464e-10 -2.22167 -0.733487 0.20892 -2.03217e-16 0.0 -3.88251e-19 -11.9345 -8.56075 8.23115 -0.005657 10.9194 0.034442 -2.63529 -17.9324 -15.6242 2.03217e-16 0.0 3.88251e-19 0.812512 -2.74741 2.66282 -0.00283691 -3.07675 0.0785754 -1.29074 -3.37902 -3.8741
